<?xml version="1.0" encoding="UTF-8" standalone="no"?>
<!DOCTYPE svg PUBLIC "-//W3C//DTD SVG 1.1//EN" "http://www.w3.org/Graphics/SVG/1.1/DTD/svg11.dtd">
<svg width="100%" height="100%" viewBox="0 0 779 190" version="1.1" xmlns="http://www.w3.org/2000/svg" xmlns:xlink="http://www.w3.org/1999/xlink" xml:space="preserve" xmlns:serif="http://www.serif.com/" style="fill-rule:evenodd;clip-rule:evenodd;stroke-linejoin:round;stroke-miterlimit:2;">
    <g transform="matrix(1,0,0,1,-677.217,745.683)">
        <g transform="matrix(4.16667,0,0,4.16667,566.799,-933.865)">
            <g transform="matrix(1,0,0,1,50.1809,90.497)">
                <path d="M0,-33.434C0.967,-33.434 1.799,-33.086 2.496,-32.39C3.173,-31.693 3.512,-30.861 3.512,-29.893L3.512,-29.835C3.512,-28.868 3.173,-28.046 2.496,-27.369C1.799,-26.672 0.967,-26.323 0,-26.323L-1.654,-26.323C-3.708,-26.518 -6.448,-25.772 -7.551,-24.669C-8.634,-23.567 -9.186,-22.221 -9.205,-20.635L-9.205,-3.512C-9.205,-2.525 -9.553,-1.703 -10.25,-1.045C-10.946,-0.348 -11.769,0 -12.717,0L-12.804,0C-13.752,0 -14.574,-0.348 -15.271,-1.045C-15.967,-1.703 -16.315,-2.525 -16.315,-3.512L-16.315,-20.635C-16.277,-24.176 -14.951,-27.12 -12.572,-29.69C-9.571,-32.932 -5.195,-33.434 -1.654,-33.434L0,-33.434Z" style="fill:rgb(140,27,171);fill-rule:nonzero;"/>
            </g>
        </g>
        <g transform="matrix(4.16667,0,0,4.16667,566.799,-933.865)">
            <g transform="matrix(1,0,0,1,70.869,83.3284)">
                <path d="M0,-19.097C-2.67,-19.097 -4.944,-18.158 -6.82,-16.282C-8.678,-14.405 -9.607,-12.132 -9.607,-9.461C-9.607,-6.811 -8.678,-4.547 -6.82,-2.67C-4.944,-0.793 -2.67,0.145 0,0.145C2.651,0.145 4.914,-0.793 6.791,-2.67C8.668,-4.547 9.607,-6.811 9.607,-9.461C9.607,-12.132 8.668,-14.405 6.791,-16.282C4.914,-18.158 2.651,-19.097 0,-19.097M0,-26.265C4.605,-26.265 8.542,-24.631 11.812,-21.361C15.082,-18.091 16.717,-14.153 16.717,-9.549C16.717,-4.943 15.082,-1.006 11.812,2.263C8.542,5.534 4.605,7.168 0,7.168C-4.605,7.168 -8.543,5.534 -11.812,2.263C-15.082,-1.006 -16.717,-4.943 -16.717,-9.549C-16.717,-14.153 -15.082,-18.091 -11.812,-21.361C-8.543,-24.631 -4.605,-26.265 0,-26.265" style="fill:rgb(140,27,171);fill-rule:nonzero;"/>
            </g>
        </g>
        <g transform="matrix(4.16667,0,0,4.16667,566.799,-933.865)">
            <g transform="matrix(1,0,0,1,113.416,89.7135)">
                <path d="M0,-31.867C1.645,-31.345 2.467,-30.222 2.467,-28.501L2.467,-28.355C2.467,-27.175 1.993,-26.236 1.045,-25.54C0.387,-25.076 -0.29,-24.843 -0.987,-24.843C-1.354,-24.843 -1.732,-24.902 -2.119,-25.018C-3.067,-25.327 -4.044,-25.482 -5.05,-25.482C-7.72,-25.482 -9.994,-24.543 -11.87,-22.667C-13.727,-20.79 -14.656,-18.517 -14.656,-15.846C-14.656,-13.196 -13.727,-10.932 -11.87,-9.055C-9.994,-7.178 -7.72,-6.24 -5.05,-6.24C-4.044,-6.24 -3.067,-6.395 -2.119,-6.705C-1.751,-6.82 -1.383,-6.879 -1.016,-6.879C-0.3,-6.879 0.387,-6.646 1.045,-6.182C1.993,-5.486 2.467,-4.537 2.467,-3.338C2.467,-1.635 1.645,-0.513 0,0.029C-1.625,0.532 -3.309,0.783 -5.05,0.783C-9.655,0.783 -13.592,-0.851 -16.862,-4.122C-20.132,-7.391 -21.767,-11.329 -21.767,-15.934C-21.767,-20.538 -20.132,-24.476 -16.862,-27.746C-13.592,-31.016 -9.655,-32.65 -5.05,-32.65C-3.309,-32.65 -1.625,-32.389 0,-31.867" style="fill:rgb(140,27,171);fill-rule:nonzero;"/>
            </g>
        </g>
        <g transform="matrix(4.16667,0,0,4.16667,566.799,-933.865)">
            <g transform="matrix(1,0,0,1,124.416,90.5326)">
                <path d="M0,-45.369C0.948,-45.369 1.77,-45.03 2.467,-44.353C3.163,-43.657 3.512,-42.825 3.512,-41.857L3.512,-21.745L4.615,-21.745C7.091,-21.745 9.248,-22.567 11.087,-24.211C12.886,-25.856 13.911,-27.887 14.163,-30.306C14.279,-31.216 14.666,-31.961 15.324,-32.541C15.981,-33.16 16.765,-33.47 17.675,-33.47L17.762,-33.47C18.787,-33.47 19.648,-33.083 20.345,-32.309C20.964,-31.631 21.273,-30.848 21.273,-29.958C21.273,-29.842 21.263,-29.716 21.245,-29.581C20.78,-24.724 18.923,-21.086 15.672,-18.668C17.374,-17.623 18.942,-15.853 20.374,-13.357C21.864,-10.784 22.609,-8.007 22.609,-5.028L22.609,-3.548C22.609,-2.561 22.26,-1.738 21.564,-1.081C20.867,-0.384 20.045,-0.036 19.097,-0.036L19.01,-0.036C18.062,-0.036 17.239,-0.384 16.543,-1.081C15.846,-1.738 15.498,-2.561 15.498,-3.548L15.498,-5.028C15.479,-7.659 14.54,-9.913 12.683,-11.79C10.806,-13.647 8.542,-14.576 5.891,-14.576L3.512,-14.576L3.512,-3.512C3.512,-2.525 3.163,-1.702 2.467,-1.045C1.77,-0.348 0.948,0 0,0L-0.087,0C-1.035,0 -1.857,-0.348 -2.554,-1.045C-3.25,-1.702 -3.599,-2.525 -3.599,-3.512L-3.599,-41.857C-3.599,-42.825 -3.25,-43.657 -2.554,-44.353C-1.857,-45.03 -1.035,-45.369 -0.087,-45.369L0,-45.369Z" style="fill:rgb(140,27,171);fill-rule:nonzero;"/>
            </g>
        </g>
        <g transform="matrix(4.16667,0,0,4.16667,566.799,-933.865)">
            <g transform="matrix(1,0,0,1,192.619,90.4966)">
                <path d="M0,-45.333C0.948,-45.333 1.77,-44.994 2.467,-44.317C3.163,-43.621 3.512,-42.789 3.512,-41.821L3.512,-33.434L7.865,-33.434C8.813,-33.434 9.636,-33.086 10.332,-32.389C11.029,-31.692 11.377,-30.86 11.377,-29.893L11.377,-29.835C11.377,-28.848 11.029,-28.026 10.332,-27.368C9.636,-26.672 8.813,-26.323 7.865,-26.323L3.512,-26.323L3.512,-9.113C3.512,-8.552 3.705,-8.078 4.092,-7.691C4.479,-7.303 4.963,-7.11 5.543,-7.11L7.865,-7.11C8.813,-7.11 9.636,-6.762 10.332,-6.066C11.029,-5.369 11.377,-4.537 11.377,-3.57L11.377,-3.512C11.377,-2.525 11.029,-1.702 10.332,-1.045C9.636,-0.348 8.813,0 7.865,0L5.543,0C3.028,0 0.871,-0.889 -0.929,-2.67C-2.709,-4.469 -3.599,-6.617 -3.599,-9.113L-3.599,-41.821C-3.599,-42.789 -3.25,-43.621 -2.554,-44.317C-1.857,-44.994 -1.035,-45.333 -0.087,-45.333L0,-45.333Z" style="fill:rgb(140,27,171);fill-rule:nonzero;"/>
            </g>
        </g>
        <g transform="matrix(4.16667,0,0,4.16667,566.799,-933.865)">
            <g transform="matrix(0,-1,-1,0,142.37,47.771)">
                <path d="M-3.587,-3.587C-5.568,-3.587 -7.172,-1.98 -7.172,-0.001C-7.172,1.98 -5.568,3.587 -3.587,3.587C-1.606,3.587 -0.001,1.98 -0.001,-0.001C-0.001,-1.98 -1.606,-3.587 -3.587,-3.587" style="fill:rgb(247,97,161);fill-rule:nonzero;"/>
            </g>
        </g>
        <g transform="matrix(4.16667,0,0,4.16667,566.799,-933.865)">
            <g transform="matrix(0,-1,-1,0,180.477,75.0653)">
                <path d="M-3.587,-3.587C-5.54,-3.587 -7.121,-1.98 -7.121,-0.001C-7.121,1.98 -5.54,3.587 -3.587,3.587C-1.634,3.587 -0.052,1.98 -0.052,-0.001C-0.052,-1.98 -1.634,-3.587 -3.587,-3.587" style="fill:rgb(247,97,161);fill-rule:nonzero;"/>
            </g>
        </g>
        <g transform="matrix(4.16667,0,0,4.16667,566.799,-933.865)">
            <g transform="matrix(0,-1,-1,0,209.858,83.3418)">
                <path d="M-3.587,-3.587C-5.54,-3.587 -7.121,-1.98 -7.121,-0.001C-7.121,1.98 -5.54,3.587 -3.587,3.587C-1.634,3.587 -0.052,1.98 -0.052,-0.001C-0.052,-1.98 -1.634,-3.587 -3.587,-3.587" style="fill:rgb(247,97,161);fill-rule:nonzero;"/>
            </g>
        </g>
        <g transform="matrix(4.16667,0,0,4.16667,566.799,-933.865)">
            <g transform="matrix(0,-1,-1,0,30.0869,57.0119)">
                <path d="M-3.587,-3.587C-5.54,-3.587 -7.121,-1.98 -7.121,-0.001C-7.121,1.98 -5.54,3.587 -3.587,3.587C-1.634,3.587 -0.052,1.98 -0.052,-0.001C-0.052,-1.98 -1.634,-3.587 -3.587,-3.587" style="fill:rgb(247,97,161);fill-rule:nonzero;"/>
            </g>
        </g>
        <g transform="matrix(4.16667,0,0,4.16667,566.799,-933.865)">
            <g transform="matrix(0,-1,-1,0,108.023,70.1174)">
                <path d="M-3.587,-3.587C-5.568,-3.587 -7.172,-1.98 -7.172,-0.001C-7.172,1.98 -5.568,3.587 -3.587,3.587C-1.606,3.587 -0.001,1.98 -0.001,-0.001C-0.001,-1.98 -1.606,-3.587 -3.587,-3.587" style="fill:rgb(247,97,161);fill-rule:nonzero;"/>
            </g>
        </g>
        <g transform="matrix(4.16667,0,0,4.16667,566.799,-933.865)">
            <g transform="matrix(0,-1,-1,0,70.5034,70.1174)">
                <path d="M-3.587,-3.587C-5.568,-3.587 -7.172,-1.98 -7.172,-0.001C-7.172,1.98 -5.568,3.587 -3.587,3.587C-1.606,3.587 -0.001,1.98 -0.001,-0.001C-0.001,-1.98 -1.606,-3.587 -3.587,-3.587" style="fill:rgb(247,97,161);fill-rule:nonzero;"/>
            </g>
        </g>
        <g transform="matrix(4.16667,0,0,4.16667,566.799,-933.865)">
            <g transform="matrix(1,0,0,1,158.222,73.0746)">
                <path d="M0,1.437L-0.01,1.234C-0.137,-1.433 0.682,-3.748 2.447,-5.712C4.232,-7.676 6.458,-8.722 9.125,-8.85C12.101,-8.992 14.345,-8.247 15.857,-6.615L0,1.437ZM24.829,-5.533C24.804,-6.035 24.665,-6.523 24.41,-6.995C22.957,-9.831 20.826,-12.073 18.016,-13.721C15.184,-15.405 12.106,-16.169 8.783,-16.01C4.183,-15.79 0.328,-13.969 -2.782,-10.546C-5.892,-7.124 -7.336,-3.112 -7.116,1.487C-6.896,6.087 -5.075,9.942 -1.653,13.051C1.77,16.161 5.781,17.606 10.381,17.386C12.512,17.284 14.503,16.814 16.354,15.983C16.54,15.913 16.718,15.83 16.888,15.732C17.951,15.118 18.668,13.983 18.668,12.681C18.668,10.729 17.062,9.146 15.081,9.146C14.693,9.146 14.319,9.209 13.968,9.321C13.689,9.411 13.426,9.536 13.181,9.687C12.199,10.085 11.155,10.317 10.045,10.37C6.933,10.519 4.598,9.701 3.041,7.916C3.967,7.426 7.105,5.814 12.456,3.078C16.767,0.877 20.246,-0.897 22.894,-2.244C23.783,-2.694 24.37,-3.38 24.655,-4.305C24.79,-4.718 24.848,-5.127 24.829,-5.533" style="fill:rgb(140,27,171);fill-rule:nonzero;"/>
            </g>
        </g>
    </g>
</svg>
